<svg id="visual" viewBox="0 0 900 600" width="900" height="600" xmlns="http://www.w3.org/2000/svg" xmlns:xlink="http://www.w3.org/1999/xlink" version="1.1"><rect x="0" y="0" width="900" height="600" fill="#ffffff"></rect><path d="M818 600L805.7 580C793.3 560 768.7 520 752.2 480C735.7 440 727.3 400 735 360C742.7 320 766.3 280 775.5 240C784.7 200 779.3 160 772.7 120C766 80 758 40 754 20L750 0L900 0L900 20C900 40 900 80 900 120C900 160 900 200 900 240C900 280 900 320 900 360C900 400 900 440 900 480C900 520 900 560 900 580L900 600Z" fill="#FCAF3C" stroke-linecap="round" stroke-linejoin="miter"></path></svg>